<svg width="34" height="34" viewBox="0 0 34 34" fill="none" xmlns="http://www.w3.org/2000/svg">
<rect width="34" height="34" fill="#1D0E3D"/>
<path d="M29.2732 26.5921C29.2732 26.5921 27.6317 28.2043 27.2295 28.677C26.5742 29.3762 25.8021 29.7065 24.79 29.7065C24.6927 29.7065 24.5889 29.7064 24.4916 29.7C22.5647 29.577 20.774 28.8259 19.431 28.1849C15.7589 26.4109 12.5344 23.8922 9.85487 20.7002C7.64249 18.0391 6.16325 15.5788 5.18358 12.9371C4.5802 11.3249 4.35961 10.0688 4.45693 8.88398C4.52181 8.12645 4.81377 7.49841 5.35226 6.96101L7.56464 4.75316C7.88254 4.45532 8.21992 4.29346 8.5508 4.29346C8.95954 4.29346 9.29042 4.53949 9.49803 4.74668C9.50452 4.75316 9.51101 4.75963 9.5175 4.76611C9.91326 5.13516 10.2896 5.51717 10.6853 5.92507C10.8864 6.13226 11.0941 6.33945 11.3017 6.55311L13.0729 8.32069C13.7606 9.007 13.7606 9.64152 13.0729 10.3278C12.8847 10.5156 12.7031 10.7034 12.5149 10.8846C11.9699 11.4415 12.398 11.0142 11.8336 11.5192C11.8206 11.5322 11.8076 11.5387 11.8012 11.5516C11.2432 12.1084 11.347 12.6523 11.4638 13.0214C11.4703 13.0408 11.4768 13.0602 11.4832 13.0796C11.9439 14.1933 12.5927 15.2422 13.5788 16.4918L13.5853 16.4983C15.376 18.6996 17.264 20.4154 19.3466 21.7298C19.6126 21.8981 19.8851 22.0341 20.1446 22.1636C20.3782 22.2801 20.5988 22.3902 20.7869 22.5067C20.8129 22.5197 20.8388 22.5391 20.8648 22.552C21.0853 22.6621 21.293 22.7139 21.5071 22.7139C22.0456 22.7139 22.3829 22.3772 22.4932 22.2672L23.7649 20.998C23.9855 20.7779 24.3359 20.5124 24.7446 20.5124C25.1469 20.5124 25.4777 20.765 25.6789 20.9851C25.6854 20.9916 25.6854 20.9916 25.6918 20.998L29.2667 24.5656C29.9349 25.226 29.2732 26.5921 29.2732 26.5921Z" stroke="white" stroke-width="2" stroke-linecap="round" stroke-linejoin="round"/>
</svg>
